<svg id="visual" viewBox="0 0 960 540" width="960" height="540" xmlns="http://www.w3.org/2000/svg" xmlns:xlink="http://www.w3.org/1999/xlink" version="1.1"><rect x="0" y="0" width="960" height="540" fill="#ffffff"></rect><path d="M0 199L26.7 211.7C53.3 224.3 106.7 249.7 160 259.7C213.3 269.7 266.7 264.3 320 264.8C373.3 265.3 426.7 271.7 480 269C533.3 266.3 586.7 254.7 640 242.5C693.3 230.3 746.7 217.7 800 216.8C853.3 216 906.7 227 933.3 232.5L960 238L960 541L933.3 541C906.7 541 853.3 541 800 541C746.7 541 693.3 541 640 541C586.7 541 533.3 541 480 541C426.7 541 373.3 541 320 541C266.7 541 213.3 541 160 541C106.7 541 53.3 541 26.7 541L0 541Z" fill="#ffffff"></path><path d="M0 246L26.7 259.5C53.3 273 106.7 300 160 296.3C213.3 292.7 266.7 258.3 320 254.5C373.3 250.7 426.7 277.3 480 277.8C533.3 278.3 586.7 252.7 640 239.2C693.3 225.7 746.7 224.3 800 240.2C853.3 256 906.7 289 933.3 305.5L960 322L960 541L933.3 541C906.7 541 853.3 541 800 541C746.7 541 693.3 541 640 541C586.7 541 533.3 541 480 541C426.7 541 373.3 541 320 541C266.7 541 213.3 541 160 541C106.7 541 53.3 541 26.7 541L0 541Z" fill="#eaecfb"></path><path d="M0 287L26.7 284.5C53.3 282 106.7 277 160 276.2C213.3 275.3 266.7 278.7 320 287.7C373.3 296.7 426.7 311.3 480 311.7C533.3 312 586.7 298 640 286.5C693.3 275 746.7 266 800 276.8C853.3 287.7 906.7 318.3 933.3 333.7L960 349L960 541L933.3 541C906.7 541 853.3 541 800 541C746.7 541 693.3 541 640 541C586.7 541 533.3 541 480 541C426.7 541 373.3 541 320 541C266.7 541 213.3 541 160 541C106.7 541 53.3 541 26.7 541L0 541Z" fill="#d5daf7"></path><path d="M0 357L26.7 353.3C53.3 349.7 106.7 342.3 160 342.7C213.3 343 266.7 351 320 344.3C373.3 337.7 426.7 316.3 480 313.3C533.3 310.3 586.7 325.7 640 336.2C693.3 346.7 746.7 352.3 800 356.8C853.3 361.3 906.7 364.7 933.3 366.3L960 368L960 541L933.3 541C906.7 541 853.3 541 800 541C746.7 541 693.3 541 640 541C586.7 541 533.3 541 480 541C426.7 541 373.3 541 320 541C266.7 541 213.3 541 160 541C106.7 541 53.3 541 26.7 541L0 541Z" fill="#bfc8f3"></path><path d="M0 355L26.7 351C53.3 347 106.7 339 160 338.3C213.3 337.7 266.7 344.3 320 353.2C373.3 362 426.7 373 480 382.5C533.3 392 586.7 400 640 391C693.3 382 746.7 356 800 354.7C853.3 353.3 906.7 376.7 933.3 388.3L960 400L960 541L933.3 541C906.7 541 853.3 541 800 541C746.7 541 693.3 541 640 541C586.7 541 533.3 541 480 541C426.7 541 373.3 541 320 541C266.7 541 213.3 541 160 541C106.7 541 53.3 541 26.7 541L0 541Z" fill="#a9b6ef"></path><path d="M0 391L26.7 387.8C53.3 384.7 106.7 378.3 160 381.8C213.3 385.3 266.7 398.7 320 406.8C373.3 415 426.7 418 480 413.7C533.3 409.3 586.7 397.7 640 387.7C693.3 377.7 746.7 369.3 800 367C853.3 364.7 906.7 368.3 933.3 370.2L960 372L960 541L933.3 541C906.7 541 853.3 541 800 541C746.7 541 693.3 541 640 541C586.7 541 533.3 541 480 541C426.7 541 373.3 541 320 541C266.7 541 213.3 541 160 541C106.7 541 53.3 541 26.7 541L0 541Z" fill="#91a5ea"></path><path d="M0 454L26.7 452.5C53.3 451 106.7 448 160 439.7C213.3 431.3 266.7 417.7 320 420.3C373.3 423 426.7 442 480 449.2C533.3 456.3 586.7 451.7 640 443.3C693.3 435 746.7 423 800 419.3C853.3 415.7 906.7 420.3 933.3 422.7L960 425L960 541L933.3 541C906.7 541 853.3 541 800 541C746.7 541 693.3 541 640 541C586.7 541 533.3 541 480 541C426.7 541 373.3 541 320 541C266.7 541 213.3 541 160 541C106.7 541 53.3 541 26.7 541L0 541Z" fill="#7894e6"></path><path d="M0 462L26.7 466.2C53.3 470.3 106.7 478.7 160 476.8C213.3 475 266.7 463 320 463.5C373.3 464 426.7 477 480 475.2C533.3 473.3 586.7 456.7 640 454C693.3 451.3 746.7 462.7 800 465.5C853.3 468.3 906.7 462.7 933.3 459.8L960 457L960 541L933.3 541C906.7 541 853.3 541 800 541C746.7 541 693.3 541 640 541C586.7 541 533.3 541 480 541C426.7 541 373.3 541 320 541C266.7 541 213.3 541 160 541C106.7 541 53.3 541 26.7 541L0 541Z" fill="#5a83e1"></path><path d="M0 498L26.7 498.7C53.3 499.3 106.7 500.7 160 497.7C213.3 494.7 266.7 487.3 320 486.8C373.3 486.3 426.7 492.7 480 491.8C533.3 491 586.7 483 640 480.3C693.3 477.7 746.7 480.3 800 484.7C853.3 489 906.7 495 933.3 498L960 501L960 541L933.3 541C906.7 541 853.3 541 800 541C746.7 541 693.3 541 640 541C586.7 541 533.3 541 480 541C426.7 541 373.3 541 320 541C266.7 541 213.3 541 160 541C106.7 541 53.3 541 26.7 541L0 541Z" fill="#3273dc"></path></svg>