<svg id="visual" viewBox="0 0 960 540" width="960" height="540" xmlns="http://www.w3.org/2000/svg" xmlns:xlink="http://www.w3.org/1999/xlink" version="1.1"><rect x="0" y="0" width="960" height="540" fill="#ffffff"></rect><defs><linearGradient id="grad1_0" x1="43.8%" y1="0%" x2="100%" y2="100%"><stop offset="14.444444444444446%" stop-color="#3273dc" stop-opacity="1"></stop><stop offset="85.55555555555554%" stop-color="#3273dc" stop-opacity="1"></stop></linearGradient></defs><defs><linearGradient id="grad1_1" x1="43.8%" y1="0%" x2="100%" y2="100%"><stop offset="14.444444444444446%" stop-color="#3273dc" stop-opacity="1"></stop><stop offset="85.55555555555554%" stop-color="#6d8de4" stop-opacity="1"></stop></linearGradient></defs><defs><linearGradient id="grad1_2" x1="43.8%" y1="0%" x2="100%" y2="100%"><stop offset="14.444444444444446%" stop-color="#96a8eb" stop-opacity="1"></stop><stop offset="85.55555555555554%" stop-color="#6d8de4" stop-opacity="1"></stop></linearGradient></defs><defs><linearGradient id="grad1_3" x1="43.8%" y1="0%" x2="100%" y2="100%"><stop offset="14.444444444444446%" stop-color="#96a8eb" stop-opacity="1"></stop><stop offset="85.55555555555554%" stop-color="#bbc4f2" stop-opacity="1"></stop></linearGradient></defs><defs><linearGradient id="grad1_4" x1="43.8%" y1="0%" x2="100%" y2="100%"><stop offset="14.444444444444446%" stop-color="#dde1f9" stop-opacity="1"></stop><stop offset="85.55555555555554%" stop-color="#bbc4f2" stop-opacity="1"></stop></linearGradient></defs><defs><linearGradient id="grad1_5" x1="43.8%" y1="0%" x2="100%" y2="100%"><stop offset="14.444444444444446%" stop-color="#dde1f9" stop-opacity="1"></stop><stop offset="85.55555555555554%" stop-color="#ffffff" stop-opacity="1"></stop></linearGradient></defs><defs><linearGradient id="grad2_0" x1="0%" y1="0%" x2="56.3%" y2="100%"><stop offset="14.444444444444446%" stop-color="#3273dc" stop-opacity="1"></stop><stop offset="85.55555555555554%" stop-color="#3273dc" stop-opacity="1"></stop></linearGradient></defs><defs><linearGradient id="grad2_1" x1="0%" y1="0%" x2="56.3%" y2="100%"><stop offset="14.444444444444446%" stop-color="#6d8de4" stop-opacity="1"></stop><stop offset="85.55555555555554%" stop-color="#3273dc" stop-opacity="1"></stop></linearGradient></defs><defs><linearGradient id="grad2_2" x1="0%" y1="0%" x2="56.3%" y2="100%"><stop offset="14.444444444444446%" stop-color="#6d8de4" stop-opacity="1"></stop><stop offset="85.55555555555554%" stop-color="#96a8eb" stop-opacity="1"></stop></linearGradient></defs><defs><linearGradient id="grad2_3" x1="0%" y1="0%" x2="56.3%" y2="100%"><stop offset="14.444444444444446%" stop-color="#bbc4f2" stop-opacity="1"></stop><stop offset="85.55555555555554%" stop-color="#96a8eb" stop-opacity="1"></stop></linearGradient></defs><defs><linearGradient id="grad2_4" x1="0%" y1="0%" x2="56.3%" y2="100%"><stop offset="14.444444444444446%" stop-color="#bbc4f2" stop-opacity="1"></stop><stop offset="85.55555555555554%" stop-color="#dde1f9" stop-opacity="1"></stop></linearGradient></defs><defs><linearGradient id="grad2_5" x1="0%" y1="0%" x2="56.3%" y2="100%"><stop offset="14.444444444444446%" stop-color="#ffffff" stop-opacity="1"></stop><stop offset="85.55555555555554%" stop-color="#dde1f9" stop-opacity="1"></stop></linearGradient></defs><g transform="translate(960, 0)"><path d="M0 513C-54.8 478.8 -109.6 444.6 -176.4 425.9C-243.3 407.2 -322.2 403.9 -362.7 362.7C-403.3 321.6 -405.4 242.4 -424.1 175.7C-442.7 108.9 -477.9 54.4 -513 0L0 0Z" fill="#eef0fc"></path><path d="M0 427.5C-45.6 399 -91.3 370.5 -147 354.9C-202.7 339.3 -268.5 336.6 -302.3 302.3C-336.1 268 -337.8 202 -353.4 146.4C-368.9 90.7 -398.2 45.4 -427.5 0L0 0Z" fill="#ccd2f5"></path><path d="M0 342C-36.5 319.2 -73 296.4 -117.6 283.9C-162.2 271.5 -214.8 269.3 -241.8 241.8C-268.9 214.4 -270.3 161.6 -282.7 117.1C-295.1 72.6 -318.6 36.3 -342 0L0 0Z" fill="#a9b6ef"></path><path d="M0 256.5C-27.4 239.4 -54.8 222.3 -88.2 213C-121.6 203.6 -161.1 202 -181.4 181.4C-201.6 160.8 -202.7 121.2 -212 87.8C-221.4 54.4 -238.9 27.2 -256.5 0L0 0Z" fill="#829ae7"></path><path d="M0 171C-18.3 159.6 -36.5 148.2 -58.8 142C-81.1 135.7 -107.4 134.6 -120.9 120.9C-134.4 107.2 -135.1 80.8 -141.4 58.6C-147.6 36.3 -159.3 18.1 -171 0L0 0Z" fill="#5480e0"></path><path d="M0 85.5C-9.1 79.8 -18.3 74.1 -29.4 71C-40.5 67.9 -53.7 67.3 -60.5 60.5C-67.2 53.6 -67.6 40.4 -70.7 29.3C-73.8 18.1 -79.6 9.1 -85.5 0L0 0Z" fill="#3273dc"></path></g><g transform="translate(0, 540)"><path d="M0 -513C35.6 -438.1 71.2 -363.1 145.8 -352C220.4 -340.9 334 -393.5 362.7 -362.7C391.5 -332 335.5 -217.9 346.5 -143.5C357.4 -69.2 435.2 -34.6 513 0L0 0Z" fill="#eef0fc"></path><path d="M0 -427.5C29.7 -365.1 59.3 -302.6 121.5 -293.3C183.7 -284 278.3 -327.9 302.3 -302.3C326.3 -276.7 279.6 -181.6 288.7 -119.6C297.8 -57.6 362.7 -28.8 427.5 0L0 0Z" fill="#ccd2f5"></path><path d="M0 -342C23.7 -292 47.5 -242.1 97.2 -234.7C146.9 -227.2 222.6 -262.3 241.8 -241.8C261 -221.3 223.7 -145.2 231 -95.7C238.2 -46.1 290.1 -23.1 342 0L0 0Z" fill="#a9b6ef"></path><path d="M0 -256.5C17.8 -219 35.6 -181.6 72.9 -176C110.2 -170.4 167 -196.7 181.4 -181.4C195.8 -166 167.8 -108.9 173.2 -71.8C178.7 -34.6 217.6 -17.3 256.5 0L0 0Z" fill="#829ae7"></path><path d="M0 -171C11.9 -146 23.7 -121 48.6 -117.3C73.5 -113.6 111.3 -131.2 120.9 -120.9C130.5 -110.7 111.8 -72.6 115.5 -47.8C119.1 -23.1 145.1 -11.5 171 0L0 0Z" fill="#5480e0"></path><path d="M0 -85.5C5.9 -73 11.9 -60.5 24.3 -58.7C36.7 -56.8 55.7 -65.6 60.5 -60.5C65.3 -55.3 55.9 -36.3 57.7 -23.9C59.6 -11.5 72.5 -5.8 85.5 0L0 0Z" fill="#3273dc"></path></g></svg>