<svg id="visual" viewBox="0 0 960 540" width="960" height="540" xmlns="http://www.w3.org/2000/svg" xmlns:xlink="http://www.w3.org/1999/xlink" version="1.1"><path d="M0 195L87 120L175 114L262 222L349 98L436 87L524 152L611 244L698 152L785 195L873 228L960 201L960 0L873 0L785 0L698 0L611 0L524 0L436 0L349 0L262 0L175 0L87 0L0 0Z" fill="#e9f0fb"></path><path d="M0 287L87 195L175 233L262 309L349 179L436 190L524 260L611 352L698 206L785 255L873 314L960 271L960 199L873 226L785 193L698 150L611 242L524 150L436 85L349 96L262 220L175 112L87 118L0 193Z" fill="#bcd1f5"></path><path d="M0 330L87 239L175 271L262 401L349 271L436 266L524 309L611 390L698 255L785 336L873 363L960 347L960 269L873 312L785 253L698 204L611 350L524 258L436 188L349 177L262 307L175 231L87 193L0 285Z" fill="#91b1ee"></path><path d="M0 411L87 444L175 492L262 471L349 438L436 433L524 433L611 492L698 384L785 476L873 476L960 449L960 345L873 361L785 334L698 253L611 388L524 307L436 264L349 269L262 399L175 269L87 237L0 328Z" fill="#6692e6"></path><path d="M0 541L87 541L175 541L262 541L349 541L436 541L524 541L611 541L698 541L785 541L873 541L960 541L960 447L873 474L785 474L698 382L611 490L524 431L436 431L349 436L262 469L175 490L87 442L0 409Z" fill="#3273dc"></path></svg>