<svg id="visual" viewBox="0 0 960 540" width="960" height="540" xmlns="http://www.w3.org/2000/svg" xmlns:xlink="http://www.w3.org/1999/xlink" version="1.1"><rect x="0" y="0" width="960" height="540" fill="#ffffff"></rect><path d="M560 0L719 0L719 60L630 60L630 120L514 120L514 180L778 180L778 240L587 240L587 300L758 300L758 360L775 360L775 420L640 420L640 480L732 480L732 540L0 540L0 480L0 480L0 420L0 420L0 360L0 360L0 300L0 300L0 240L0 240L0 180L0 180L0 120L0 120L0 60L0 60L0 0L0 0Z" fill="#2cacf2"></path><path d="M474 0L597 0L597 60L626 60L626 120L505 120L505 180L573 180L573 240L533 240L533 300L431 300L431 360L675 360L675 420L498 420L498 480L410 480L410 540L0 540L0 480L0 480L0 420L0 420L0 360L0 360L0 300L0 300L0 240L0 240L0 180L0 180L0 120L0 120L0 60L0 60L0 0L0 0Z" fill="#1da1ef"></path><path d="M351 0L530 0L530 60L505 60L505 120L437 120L437 180L474 180L474 240L521 240L521 300L372 300L372 360L527 360L527 420L339 420L339 480L564 480L564 540L0 540L0 480L0 480L0 420L0 420L0 360L0 360L0 300L0 300L0 240L0 240L0 180L0 180L0 120L0 120L0 60L0 60L0 0L0 0Z" fill="#1597ec"></path><path d="M299 0L403 0L403 60L345 60L345 120L311 120L311 180L325 180L325 240L407 240L407 300L438 300L438 360L362 360L362 420L296 420L296 480L223 480L223 540L0 540L0 480L0 480L0 420L0 420L0 360L0 360L0 300L0 300L0 240L0 240L0 180L0 180L0 120L0 120L0 60L0 60L0 0L0 0Z" fill="#188be8"></path><path d="M217 0L184 0L184 60L149 60L149 120L306 120L306 180L215 180L215 240L239 240L239 300L325 300L325 360L226 360L226 420L301 420L301 480L192 480L192 540L0 540L0 480L0 480L0 420L0 420L0 360L0 360L0 300L0 300L0 240L0 240L0 180L0 180L0 120L0 120L0 60L0 60L0 0L0 0Z" fill="#247fe2"></path><path d="M203 0L119 0L119 60L76 60L76 120L65 120L65 180L62 180L62 240L170 240L170 300L53 300L53 360L200 360L200 420L195 420L195 480L151 480L151 540L0 540L0 480L0 480L0 420L0 420L0 360L0 360L0 300L0 300L0 240L0 240L0 180L0 180L0 120L0 120L0 60L0 60L0 0L0 0Z" fill="#3273dc"></path></svg>