<svg id="visual" viewBox="0 0 1150 740" width="1150" height="740" xmlns="http://www.w3.org/2000/svg" xmlns:xlink="http://www.w3.org/1999/xlink" version="1.1"><rect x="0" y="0" width="1150" height="740" fill="#001220"></rect><path d="M0 239L21.3 267.2C42.7 295.3 85.3 351.7 128 364.7C170.7 377.7 213.3 347.3 255.8 331.3C298.3 315.3 340.7 313.7 383.2 320.8C425.7 328 468.3 344 511 369C553.7 394 596.3 428 639 430.5C681.7 433 724.3 404 766.8 372.2C809.3 340.3 851.7 305.7 894.2 295C936.7 284.3 979.3 297.7 1022 328.2C1064.7 358.7 1107.3 406.3 1128.7 430.2L1150 454L1150 741L1128.7 741C1107.3 741 1064.7 741 1022 741C979.3 741 936.7 741 894.2 741C851.7 741 809.3 741 766.8 741C724.3 741 681.7 741 639 741C596.3 741 553.7 741 511 741C468.3 741 425.7 741 383.2 741C340.7 741 298.3 741 255.8 741C213.3 741 170.7 741 128 741C85.3 741 42.7 741 21.3 741L0 741Z" fill="#fa7268"></path><path d="M0 429L21.3 416.8C42.7 404.7 85.3 380.3 128 363.2C170.7 346 213.3 336 255.8 336.2C298.3 336.3 340.7 346.7 383.2 367.2C425.7 387.7 468.3 418.3 511 434C553.7 449.7 596.3 450.3 639 449.7C681.7 449 724.3 447 766.8 456.7C809.3 466.3 851.7 487.7 894.2 472.7C936.7 457.7 979.3 406.3 1022 406C1064.7 405.7 1107.3 456.3 1128.7 481.7L1150 507L1150 741L1128.7 741C1107.3 741 1064.7 741 1022 741C979.3 741 936.7 741 894.2 741C851.7 741 809.3 741 766.8 741C724.3 741 681.7 741 639 741C596.3 741 553.7 741 511 741C468.3 741 425.7 741 383.2 741C340.7 741 298.3 741 255.8 741C213.3 741 170.7 741 128 741C85.3 741 42.7 741 21.3 741L0 741Z" fill="#ef5f67"></path><path d="M0 444L21.3 440.8C42.7 437.7 85.3 431.3 128 452.8C170.7 474.3 213.3 523.7 255.8 538.7C298.3 553.7 340.7 534.3 383.2 508.5C425.7 482.7 468.3 450.3 511 443.7C553.7 437 596.3 456 639 470.3C681.7 484.7 724.3 494.3 766.8 486.5C809.3 478.7 851.7 453.3 894.2 442.3C936.7 431.3 979.3 434.7 1022 452C1064.7 469.3 1107.3 500.7 1128.7 516.3L1150 532L1150 741L1128.7 741C1107.3 741 1064.7 741 1022 741C979.3 741 936.7 741 894.2 741C851.7 741 809.3 741 766.8 741C724.3 741 681.7 741 639 741C596.3 741 553.7 741 511 741C468.3 741 425.7 741 383.2 741C340.7 741 298.3 741 255.8 741C213.3 741 170.7 741 128 741C85.3 741 42.7 741 21.3 741L0 741Z" fill="#e34c67"></path><path d="M0 512L21.3 524.8C42.7 537.7 85.3 563.3 128 567.5C170.7 571.7 213.3 554.3 255.8 555.8C298.3 557.3 340.7 577.7 383.2 587C425.7 596.3 468.3 594.7 511 599.2C553.7 603.7 596.3 614.3 639 619.5C681.7 624.7 724.3 624.3 766.8 618.3C809.3 612.3 851.7 600.7 894.2 601.7C936.7 602.7 979.3 616.3 1022 601C1064.7 585.7 1107.3 541.3 1128.7 519.2L1150 497L1150 741L1128.7 741C1107.3 741 1064.7 741 1022 741C979.3 741 936.7 741 894.2 741C851.7 741 809.3 741 766.8 741C724.3 741 681.7 741 639 741C596.3 741 553.7 741 511 741C468.3 741 425.7 741 383.2 741C340.7 741 298.3 741 255.8 741C213.3 741 170.7 741 128 741C85.3 741 42.7 741 21.3 741L0 741Z" fill="#d53867"></path><path d="M0 612L21.3 618.3C42.7 624.7 85.3 637.3 128 646.8C170.7 656.3 213.3 662.7 255.8 656.2C298.3 649.7 340.7 630.3 383.2 629.2C425.7 628 468.3 645 511 649.8C553.7 654.7 596.3 647.3 639 652.5C681.7 657.7 724.3 675.3 766.8 682.7C809.3 690 851.7 687 894.2 674.8C936.7 662.7 979.3 641.3 1022 627.5C1064.7 613.7 1107.3 607.3 1128.7 604.2L1150 601L1150 741L1128.7 741C1107.3 741 1064.7 741 1022 741C979.3 741 936.7 741 894.2 741C851.7 741 809.3 741 766.8 741C724.3 741 681.7 741 639 741C596.3 741 553.7 741 511 741C468.3 741 425.7 741 383.2 741C340.7 741 298.3 741 255.8 741C213.3 741 170.7 741 128 741C85.3 741 42.7 741 21.3 741L0 741Z" fill="#c62368"></path></svg>