<svg id="visual" viewBox="0 0 900 600" width="900" height="600" xmlns="http://www.w3.org/2000/svg" xmlns:xlink="http://www.w3.org/1999/xlink" version="1.1"><rect x="0" y="0" width="900" height="600" fill="#001220"></rect><path d="M0 310L16.7 316.7C33.3 323.3 66.7 336.7 100 316.8C133.3 297 166.7 244 200 220.5C233.3 197 266.7 203 300 216.3C333.3 229.7 366.7 250.3 400 267.2C433.3 284 466.7 297 500 298C533.3 299 566.7 288 600 298.7C633.3 309.3 666.7 341.7 700 340.8C733.3 340 766.7 306 800 279C833.3 252 866.7 232 883.3 222L900 212L900 601L883.3 601C866.7 601 833.3 601 800 601C766.7 601 733.3 601 700 601C666.7 601 633.3 601 600 601C566.7 601 533.3 601 500 601C466.7 601 433.3 601 400 601C366.7 601 333.3 601 300 601C266.7 601 233.3 601 200 601C166.7 601 133.3 601 100 601C66.7 601 33.3 601 16.7 601L0 601Z" fill="#fa7268"></path><path d="M0 337L16.7 350.2C33.3 363.3 66.7 389.7 100 387.2C133.3 384.7 166.7 353.3 200 335.5C233.3 317.7 266.7 313.3 300 324.2C333.3 335 366.7 361 400 362C433.3 363 466.7 339 500 331.3C533.3 323.7 566.7 332.3 600 350.2C633.3 368 666.7 395 700 386.7C733.3 378.3 766.7 334.7 800 310.2C833.3 285.7 866.7 280.3 883.3 277.7L900 275L900 601L883.3 601C866.7 601 833.3 601 800 601C766.7 601 733.3 601 700 601C666.7 601 633.3 601 600 601C566.7 601 533.3 601 500 601C466.7 601 433.3 601 400 601C366.7 601 333.3 601 300 601C266.7 601 233.3 601 200 601C166.7 601 133.3 601 100 601C66.7 601 33.3 601 16.7 601L0 601Z" fill="#ef5f67"></path><path d="M0 386L16.7 381.7C33.3 377.3 66.7 368.7 100 359.2C133.3 349.7 166.7 339.3 200 357.5C233.3 375.7 266.7 422.3 300 445.2C333.3 468 366.7 467 400 466.8C433.3 466.7 466.7 467.3 500 466.7C533.3 466 566.7 464 600 454C633.3 444 666.7 426 700 407.3C733.3 388.7 766.7 369.3 800 358.5C833.3 347.7 866.7 345.3 883.3 344.2L900 343L900 601L883.3 601C866.7 601 833.3 601 800 601C766.7 601 733.3 601 700 601C666.7 601 633.3 601 600 601C566.7 601 533.3 601 500 601C466.7 601 433.3 601 400 601C366.7 601 333.3 601 300 601C266.7 601 233.3 601 200 601C166.7 601 133.3 601 100 601C66.7 601 33.3 601 16.7 601L0 601Z" fill="#e34c67"></path><path d="M0 414L16.7 418.7C33.3 423.3 66.7 432.7 100 436.7C133.3 440.7 166.7 439.3 200 439.3C233.3 439.3 266.7 440.7 300 450.2C333.3 459.7 366.7 477.3 400 486.3C433.3 495.3 466.7 495.7 500 492.2C533.3 488.7 566.7 481.3 600 481.2C633.3 481 666.7 488 700 495C733.3 502 766.7 509 800 512.8C833.3 516.7 866.7 517.3 883.3 517.7L900 518L900 601L883.3 601C866.7 601 833.3 601 800 601C766.7 601 733.3 601 700 601C666.7 601 633.3 601 600 601C566.7 601 533.3 601 500 601C466.7 601 433.3 601 400 601C366.7 601 333.3 601 300 601C266.7 601 233.3 601 200 601C166.7 601 133.3 601 100 601C66.7 601 33.3 601 16.7 601L0 601Z" fill="#d53867"></path><path d="M0 536L16.7 526.7C33.3 517.3 66.7 498.7 100 500.3C133.3 502 166.7 524 200 525.2C233.3 526.3 266.7 506.7 300 508.2C333.3 509.7 366.7 532.3 400 538.5C433.3 544.7 466.7 534.3 500 529.7C533.3 525 566.7 526 600 517.5C633.3 509 666.7 491 700 483.8C733.3 476.7 766.7 480.3 800 485.2C833.3 490 866.7 496 883.3 499L900 502L900 601L883.3 601C866.7 601 833.3 601 800 601C766.7 601 733.3 601 700 601C666.7 601 633.3 601 600 601C566.7 601 533.3 601 500 601C466.7 601 433.3 601 400 601C366.7 601 333.3 601 300 601C266.7 601 233.3 601 200 601C166.7 601 133.3 601 100 601C66.7 601 33.3 601 16.7 601L0 601Z" fill="#c62368"></path></svg>