<svg id="visual" viewBox="0 0 960 540" width="960" height="540" xmlns="http://www.w3.org/2000/svg" xmlns:xlink="http://www.w3.org/1999/xlink" version="1.1"><rect x="0" y="0" width="960" height="540" fill="#001220"></rect><path d="M0 174L17.8 194.5C35.7 215 71.3 256 106.8 265.5C142.3 275 177.7 253 213.2 241.5C248.7 230 284.3 229 320 234.2C355.7 239.3 391.3 250.7 426.8 268.8C462.3 287 497.7 312 533.2 313.8C568.7 315.7 604.3 294.3 640 271C675.7 247.7 711.3 222.3 746.8 214.7C782.3 207 817.7 217 853.2 239.3C888.7 261.7 924.3 296.3 942.2 313.7L960 331L960 541L942.2 541C924.3 541 888.7 541 853.2 541C817.7 541 782.3 541 746.8 541C711.3 541 675.7 541 640 541C604.3 541 568.7 541 533.2 541C497.7 541 462.3 541 426.8 541C391.3 541 355.7 541 320 541C284.3 541 248.7 541 213.2 541C177.7 541 142.3 541 106.8 541C71.3 541 35.7 541 17.8 541L0 541Z" fill="#fa7268"></path><path d="M0 313L17.8 304.2C35.7 295.3 71.3 277.7 106.8 265.2C142.3 252.7 177.7 245.3 213.2 245.3C248.7 245.3 284.3 252.7 320 267.7C355.7 282.7 391.3 305.3 426.8 316.8C462.3 328.3 497.7 328.7 533.2 328.2C568.7 327.7 604.3 326.3 640 333.3C675.7 340.3 711.3 355.7 746.8 344.7C782.3 333.7 817.7 296.3 853.2 296.2C888.7 296 924.3 333 942.2 351.5L960 370L960 541L942.2 541C924.3 541 888.7 541 853.2 541C817.7 541 782.3 541 746.8 541C711.3 541 675.7 541 640 541C604.3 541 568.7 541 533.2 541C497.7 541 462.3 541 426.8 541C391.3 541 355.7 541 320 541C284.3 541 248.7 541 213.2 541C177.7 541 142.3 541 106.8 541C71.3 541 35.7 541 17.8 541L0 541Z" fill="#ef5f67"></path><path d="M0 324L17.8 321.7C35.7 319.3 71.3 314.7 106.8 330.3C142.3 346 177.7 382 213.2 393C248.7 404 284.3 390 320 371.2C355.7 352.3 391.3 328.7 426.8 323.7C462.3 318.7 497.7 332.3 533.2 342.7C568.7 353 604.3 360 640 354.3C675.7 348.7 711.3 330.3 746.8 322.3C782.3 314.3 817.7 316.7 853.2 329.3C888.7 342 924.3 365 942.2 376.5L960 388L960 541L942.2 541C924.3 541 888.7 541 853.2 541C817.7 541 782.3 541 746.8 541C711.3 541 675.7 541 640 541C604.3 541 568.7 541 533.2 541C497.7 541 462.3 541 426.8 541C391.3 541 355.7 541 320 541C284.3 541 248.7 541 213.2 541C177.7 541 142.3 541 106.8 541C71.3 541 35.7 541 17.8 541L0 541Z" fill="#e34c67"></path><path d="M0 373L17.8 382.3C35.7 391.7 71.3 410.3 106.8 413.5C142.3 416.7 177.7 404.3 213.2 405.5C248.7 406.7 284.3 421.3 320 428C355.7 434.7 391.3 433.3 426.8 436.5C462.3 439.7 497.7 447.3 533.2 451.2C568.7 455 604.3 455 640 450.8C675.7 446.7 711.3 438.3 746.8 439.2C782.3 440 817.7 450 853.2 438.7C888.7 427.3 924.3 394.7 942.2 378.3L960 362L960 541L942.2 541C924.3 541 888.7 541 853.2 541C817.7 541 782.3 541 746.8 541C711.3 541 675.7 541 640 541C604.3 541 568.7 541 533.2 541C497.7 541 462.3 541 426.8 541C391.3 541 355.7 541 320 541C284.3 541 248.7 541 213.2 541C177.7 541 142.3 541 106.8 541C71.3 541 35.7 541 17.8 541L0 541Z" fill="#d53867"></path><path d="M0 447L17.8 451.5C35.7 456 71.3 465 106.8 471.8C142.3 478.7 177.7 483.3 213.2 478.7C248.7 474 284.3 460 320 459.2C355.7 458.3 391.3 470.7 426.8 474.2C462.3 477.7 497.7 472.3 533.2 476.2C568.7 480 604.3 493 640 498.3C675.7 503.7 711.3 501.3 746.8 492.3C782.3 483.3 817.7 467.7 853.2 457.5C888.7 447.3 924.3 442.7 942.2 440.3L960 438L960 541L942.2 541C924.3 541 888.7 541 853.2 541C817.7 541 782.3 541 746.8 541C711.3 541 675.7 541 640 541C604.3 541 568.7 541 533.2 541C497.7 541 462.3 541 426.8 541C391.3 541 355.7 541 320 541C284.3 541 248.7 541 213.2 541C177.7 541 142.3 541 106.8 541C71.3 541 35.7 541 17.8 541L0 541Z" fill="#c62368"></path></svg>